<svg width="110" height="110" viewBox="0 0 110 110" fill="none" xmlns="http://www.w3.org/2000/svg">
<path fill-rule="evenodd" clip-rule="evenodd" d="M92.7124 95.0349C103.356 85.0053 110 70.7786 110 55C110 24.6243 85.3757 0 55 0C24.6243 0 0 24.6243 0 55C0 70.7786 6.6443 85.0053 17.2876 95.0349C27.134 104.313 40.4029 110 55 110C69.5971 110 82.866 104.313 92.7124 95.0349ZM21.9725 87.7874C29.726 78.1158 41.6398 71.9231 55 71.9231C68.3602 71.9231 80.274 78.1158 88.0275 87.7874C79.5964 96.2798 67.9123 101.538 55 101.538C42.0877 101.538 30.4036 96.2798 21.9725 87.7874ZM76.1538 38.0769C76.1538 49.7599 66.6829 59.2308 55 59.2308C43.3171 59.2308 33.8462 49.7599 33.8462 38.0769C33.8462 26.394 43.3171 16.9231 55 16.9231C66.6829 16.9231 76.1538 26.394 76.1538 38.0769Z" fill="white"/>
</svg>
