<svg width="97" height="73" viewBox="0 0 97 73" fill="none" xmlns="http://www.w3.org/2000/svg">
<path d="M73.4498 10.5864L64.0197 13.4653L61.6863 5.82187C60.403 1.61801 55.9581 -0.785146 51.8088 0.481529L6.54412 14.2998C2.39485 15.5665 0.0500067 20.0424 1.33335 24.2462L11.8334 58.6415C13.1168 62.8453 17.5616 65.2485 21.7109 63.9818C23.6476 70.3258 30.2655 73.9038 36.5271 71.9923C42.7887 70.0808 46.2799 63.4167 44.3432 57.0727L66.9756 50.1635C68.9123 56.5075 75.5302 60.0856 81.7918 58.174C88.0534 56.2625 91.5446 49.5984 89.608 43.2544L93.38 42.1029C95.4547 41.4695 96.6271 39.2316 95.9854 37.1297L92.1004 24.4034C91.5987 22.7601 90.5806 21.3162 89.1916 20.278L76.9341 11.1939C75.9258 10.4573 74.6191 10.2295 73.4498 10.5864ZM34.1937 64.3489C32.1191 64.9823 29.8967 63.7807 29.255 61.6788C28.6133 59.5768 29.7858 57.3389 31.8604 56.7055C33.935 56.0722 36.1575 57.2738 36.7991 59.3757C37.4408 61.4776 36.2684 63.7156 34.1937 64.3489ZM75.1998 16.319L85.5097 23.6162L68.6864 28.752L65.7697 19.1978L75.1998 16.319ZM79.4585 50.5306C77.3838 51.164 75.1614 49.9624 74.5197 47.8605C73.8781 45.7586 75.0505 43.5206 77.1251 42.8873C79.1997 42.2539 81.4222 43.4555 82.0638 45.5574C82.7055 47.6594 81.5331 49.8973 79.4585 50.5306Z" fill="white" fill-opacity="0.13"/>
</svg>
